{
    "asset" : {
        "version" : "2.0",
        "generator" : "Khronos Blender glTF 2.0 I/O"
    },
    "scene" : 0,
    "scenes" : [
        {
            "nodes" : [
                0,
                1,
                2,
                3,
                4
            ],
            "name" : "Scene"
        }
    ],
    "nodes" : [
        {
            "translation" : [
                0,
                0.49497851729393005,
                0
            ],
            "name" : "Torus.001",
            "mesh" : 0
        },
        {
            "translation" : [
                0,
                0.49497851729393005,
                0
            ],
            "name" : "Torus",
            "mesh" : 1
        },
        {
            "scale" : [
                7.996826648712158,
                7.996826648712158,
                7.996826648712158
            ],
            "name" : "Plane",
            "mesh" : 2
        },
        {
            "rotation" : [
                0.16907575726509094,
                0.7558802962303162,
                -0.27217137813568115,
                0.570947527885437
            ],
            "translation" : [
                0.09388184547424316,
                4.594967842102051,
                -0.07515394687652588
            ],
            "name" : "Lamp"
        },
        {
            "rotation" : [
                0.483536034822464,
                0.33687159419059753,
                -0.20870360732078552,
                0.7804827094078064
            ],
            "translation" : [
                7.481131553649902,
                5.34366512298584,
                6.5076398849487305
            ],
            "name" : "Camera"
        }
    ],
    "materials" : [
        {
            "pbrMetallicRoughness" : {},
            "name" : "Material.002"
        },
        {
            "pbrMetallicRoughness" : {},
            "name" : "Material.001"
        }
    ],
    "meshes" : [
        {
            "primitives" : [
                {
                    "material" : 0,
                    "indices" : 2,
                    "attributes" : {
                        "NORMAL" : 0,
                        "POSITION" : 1
                    }
                }
            ],
            "name" : "Torus.001"
        },
        {
            "primitives" : [
                {
                    "material" : 1,
                    "indices" : 5,
                    "attributes" : {
                        "NORMAL" : 3,
                        "POSITION" : 4
                    }
                }
            ],
            "name" : "Torus"
        },
        {
            "primitives" : [
                {
                    "indices" : 8,
                    "attributes" : {
                        "NORMAL" : 6,
                        "POSITION" : 7
                    }
                }
            ],
            "name" : "Plane"
        }
    ],
    "accessors" : [
        {
            "count" : 1152,
            "bufferView" : 0,
            "type" : "VEC3",
            "componentType" : 5126
        },
        {
            "count" : 1152,
            "componentType" : 5126,
            "type" : "VEC3",
            "bufferView" : 1,
            "max" : [
                1.4243524074554443,
                0.4899999797344208,
                1.4243524074554443
            ],
            "min" : [
                -1.4243524074554443,
                -0.18487854301929474,
                -1.4243524074554443
            ]
        },
        {
            "count" : 1728,
            "bufferView" : 2,
            "type" : "SCALAR",
            "componentType" : 5123
        },
        {
            "count" : 576,
            "bufferView" : 3,
            "type" : "VEC3",
            "componentType" : 5126
        },
        {
            "count" : 576,
            "componentType" : 5126,
            "type" : "VEC3",
            "bufferView" : 4,
            "max" : [
                1.4900000095367432,
                0.4899999797344208,
                1.4900000095367432
            ],
            "min" : [
                -1.4900000095367432,
                -0.4899999797344208,
                -1.4900000095367432
            ]
        },
        {
            "count" : 3456,
            "bufferView" : 5,
            "type" : "SCALAR",
            "componentType" : 5123
        },
        {
            "count" : 4,
            "bufferView" : 6,
            "type" : "VEC3",
            "componentType" : 5126
        },
        {
            "count" : 4,
            "componentType" : 5126,
            "type" : "VEC3",
            "bufferView" : 7,
            "max" : [
                1,
                0,
                1
            ],
            "min" : [
                -1,
                0,
                -1
            ]
        },
        {
            "count" : 6,
            "bufferView" : 8,
            "type" : "SCALAR",
            "componentType" : 5123
        }
    ],
    "bufferViews" : [
        {
            "buffer" : 0,
            "byteLength" : 13824,
            "byteOffset" : 0
        },
        {
            "buffer" : 0,
            "byteLength" : 13824,
            "byteOffset" : 13824
        },
        {
            "buffer" : 0,
            "byteLength" : 3456,
            "byteOffset" : 27648
        },
        {
            "buffer" : 0,
            "byteLength" : 6912,
            "byteOffset" : 31104
        },
        {
            "buffer" : 0,
            "byteLength" : 6912,
            "byteOffset" : 38016
        },
        {
            "buffer" : 0,
            "byteLength" : 6912,
            "byteOffset" : 44928
        },
        {
            "buffer" : 0,
            "byteLength" : 48,
            "byteOffset" : 51840
        },
        {
            "buffer" : 0,
            "byteLength" : 48,
            "byteOffset" : 51888
        },
        {
            "buffer" : 0,
            "byteLength" : 12,
            "byteOffset" : 51936
        }
    ],
    "buffers" : [
        {
            "uri" : "data:application/octet-stream;base64,",
            "byteLength" : 51948
        }
    ]
}
